<?xml version='1.0' encoding='UTF-8'?>
<mxfile host="py-mxgraph">
  <diagram id="phy-network-layout###" name="phy-network-layout2">
    <mxGraphModel id="phy-network-layout" name="phy-layout">
      <root>
        <mxCell id="0" vertex_type="Vertex.ETC" />
        <mxCell id="1" parent="0" vertex_type="Vertex.ETC" />
        <mxCell id="phy-network-layout-0" parent="1" style="shape=rectangle;strokeWidth=3;whiteSpace=wrap;html=1;" value="hostname_A" vertex="1" vertex_type="Vertex.NODE">
          <mxGeometry x="210.0" y="100.0" width="160.0" height="60.0" as="geometry" />
        </mxCell>
        <mxCell id="phy-network-layout-1" parent="1" style="shape=rectangle;strokeWidth=3;whiteSpace=wrap;html=1;" value="hostname_B" vertex="1" vertex_type="Vertex.NODE">
          <mxGeometry x="700.0" y="100.0" width="160.0" height="60.0" as="geometry" />
        </mxCell>
        <mxCell id="phy-network-layout-2" parent="1" style="shape=rectangle;strokeWidth=3;whiteSpace=wrap;html=1;" value="hostname_A1" vertex="1" vertex_type="Vertex.NODE">
          <mxGeometry x="100.0" y="500.0" width="160.0" height="60.0" as="geometry" />
        </mxCell>
        <mxCell id="phy-network-layout-3" parent="1" style="shape=rectangle;strokeWidth=3;whiteSpace=wrap;html=1;" value="hostname_A2" vertex="1" vertex_type="Vertex.NODE">
          <mxGeometry x="300.0" y="500.0" width="160.0" height="60.0" as="geometry" />
        </mxCell>
        <mxCell id="phy-network-layout-4" parent="1" style="shape=rectangle;strokeWidth=3;whiteSpace=wrap;html=1;" value="hostname_B1" vertex="1" vertex_type="Vertex.NODE">
          <mxGeometry x="400.0" y="300.0" width="160.0" height="60.0" as="geometry" />
        </mxCell>
        <mxCell id="phy-network-layout-5" parent="1" style="shape=rectangle;strokeWidth=3;whiteSpace=wrap;html=1;" value="hostname_B2" vertex="1" vertex_type="Vertex.NODE">
          <mxGeometry x="600.0" y="300.0" width="160.0" height="60.0" as="geometry" />
        </mxCell>
        <mxCell id="phy-network-layout-6" parent="1" style="shape=rectangle;strokeWidth=3;whiteSpace=wrap;html=1;" value="hostname_B3" vertex="1" vertex_type="Vertex.NODE">
          <mxGeometry x="800.0" y="300.0" width="160.0" height="60.0" as="geometry" />
        </mxCell>
        <mxCell id="phy-network-layout-7" parent="1" style="shape=rectangle;strokeWidth=3;whiteSpace=wrap;html=1;" value="hostname_B4" vertex="1" vertex_type="Vertex.NODE">
          <mxGeometry x="1000.0" y="300.0" width="160.0" height="60.0" as="geometry" />
        </mxCell>
        <mxCell id="phy-network-layout-8" parent="1" style="shape=rectangle;strokeWidth=3;whiteSpace=wrap;html=1;" value="hostname_B5" vertex="1" vertex_type="Vertex.NODE">
          <mxGeometry x="1200.0" y="300.0" width="160.0" height="60.0" as="geometry" />
        </mxCell>
        <mxCell id="phy-network-layout-9" parent="1" style="shape=rectangle;strokeWidth=3;whiteSpace=wrap;html=1;" value="hostname_A21" vertex="1" vertex_type="Vertex.NODE">
          <mxGeometry x="300.0" y="700.0" width="160.0" height="60.0" as="geometry" />
        </mxCell>
        <mxCell id="phy-network-layout-10" parent="1" style="shape=rectangle;strokeWidth=3;whiteSpace=wrap;html=1;" value="hostname_A22" vertex="1" vertex_type="Vertex.NODE">
          <mxGeometry x="1000.0" y="500.0" width="160.0" height="60.0" as="geometry" />
        </mxCell>
        <mxCell id="phy-network-layout-11" parent="1" style="shape=rectangle;strokeWidth=3;whiteSpace=wrap;html=1;" value="hostname_B31" vertex="1" vertex_type="Vertex.NODE">
          <mxGeometry x="800.0" y="500.0" width="160.0" height="60.0" as="geometry" />
        </mxCell>
        <mxCell id="phy-network-layout-12" parent="1" style="edgeStyle=none;strokeWidth=3;startArrow=box;endArrow=box;curved=1;orthogonalLoop=1;jettySize=auto;html=1;" source="phy-network-layout-0" target="phy-network-layout-1" value="UPDATE" vertex_type="Vertex.ETC" edge="1">
          <mxGeometry relative="1" as="geometry" />
        </mxCell>
        <mxCell id="phy-network-layout-12-edge_src_label" parent="phy-network-layout-12" style="labelBackgroundColor=#ffffff;" value="Gi0/0/1" vertex="1" vertex_type="Vertex.ETC">
          <mxGeometry x="-0.8" relative="1" as="geometry" />
        </mxCell>
        <mxCell id="phy-network-layout-12-edge_dst_label" parent="phy-network-layout-12" style="labelBackgroundColor=#ffffff;" value="Gi0/0/1" vertex="1" vertex_type="Vertex.ETC">
          <mxGeometry x="0.8" relative="1" as="geometry" />
        </mxCell>
        <mxCell id="phy-network-layout-13" parent="1" style="edgeStyle=none;endArrow=none;curved=1;orthogonalLoop=1;jettySize=auto;html=1;" source="phy-network-layout-0" target="phy-network-layout-2" value="UPDATE" vertex_type="Vertex.ETC" edge="1">
          <mxGeometry relative="1" as="geometry" />
        </mxCell>
        <mxCell id="phy-network-layout-13-edge_src_label" parent="phy-network-layout-13" style="labelBackgroundColor=#ffffff;" value="Gi0/0/2" vertex="1" vertex_type="Vertex.ETC">
          <mxGeometry x="-0.8" relative="1" as="geometry" />
        </mxCell>
        <mxCell id="phy-network-layout-13-edge_dst_label" parent="phy-network-layout-13" style="labelBackgroundColor=#ffffff;" value="Gi0/0/1" vertex="1" vertex_type="Vertex.ETC">
          <mxGeometry x="0.8" relative="1" as="geometry" />
        </mxCell>
        <mxCell id="phy-network-layout-14" parent="1" style="edgeStyle=none;endArrow=none;curved=1;orthogonalLoop=1;jettySize=auto;html=1;" source="phy-network-layout-0" target="phy-network-layout-2" value="UPDATE" vertex_type="Vertex.ETC" edge="1">
          <mxGeometry relative="1" as="geometry" />
        </mxCell>
        <mxCell id="phy-network-layout-14-edge_src_label" parent="phy-network-layout-14" style="labelBackgroundColor=#ffffff;" value="Gi0/0/X" vertex="1" vertex_type="Vertex.ETC">
          <mxGeometry x="-0.8" relative="1" as="geometry" />
        </mxCell>
        <mxCell id="phy-network-layout-14-edge_dst_label" parent="phy-network-layout-14" style="labelBackgroundColor=#ffffff;" value="Gi0/0/X" vertex="1" vertex_type="Vertex.ETC">
          <mxGeometry x="0.8" relative="1" as="geometry" />
        </mxCell>
        <mxCell id="phy-network-layout-15" parent="1" style="edgeStyle=none;endArrow=none;curved=1;orthogonalLoop=1;jettySize=auto;html=1;" source="phy-network-layout-0" target="phy-network-layout-3" value="UPDATE" vertex_type="Vertex.ETC" edge="1">
          <mxGeometry relative="1" as="geometry" />
        </mxCell>
        <mxCell id="phy-network-layout-15-edge_src_label" parent="phy-network-layout-15" style="labelBackgroundColor=#ffffff;" value="Gi0/0/3" vertex="1" vertex_type="Vertex.ETC">
          <mxGeometry x="-0.8" relative="1" as="geometry" />
        </mxCell>
        <mxCell id="phy-network-layout-15-edge_dst_label" parent="phy-network-layout-15" style="labelBackgroundColor=#ffffff;" value="Gi0/0/1" vertex="1" vertex_type="Vertex.ETC">
          <mxGeometry x="0.8" relative="1" as="geometry" />
        </mxCell>
        <mxCell id="phy-network-layout-16" parent="1" style="edgeStyle=none;endArrow=none;curved=1;orthogonalLoop=1;jettySize=auto;html=1;" source="phy-network-layout-1" target="phy-network-layout-4" value="UPDATE" vertex_type="Vertex.ETC" edge="1">
          <mxGeometry relative="1" as="geometry" />
        </mxCell>
        <mxCell id="phy-network-layout-16-edge_src_label" parent="phy-network-layout-16" style="labelBackgroundColor=#ffffff;" value="Gi0/0/1" vertex="1" vertex_type="Vertex.ETC">
          <mxGeometry x="-0.8" relative="1" as="geometry" />
        </mxCell>
        <mxCell id="phy-network-layout-16-edge_dst_label" parent="phy-network-layout-16" style="labelBackgroundColor=#ffffff;" value="Gi0/0/1" vertex="1" vertex_type="Vertex.ETC">
          <mxGeometry x="0.8" relative="1" as="geometry" />
        </mxCell>
        <mxCell id="phy-network-layout-17" parent="1" style="edgeStyle=none;endArrow=none;curved=1;orthogonalLoop=1;jettySize=auto;html=1;" source="phy-network-layout-1" target="phy-network-layout-5" value="UPDATE" vertex_type="Vertex.ETC" edge="1">
          <mxGeometry relative="1" as="geometry" />
        </mxCell>
        <mxCell id="phy-network-layout-17-edge_src_label" parent="phy-network-layout-17" style="labelBackgroundColor=#ffffff;" value="Gi0/0/2" vertex="1" vertex_type="Vertex.ETC">
          <mxGeometry x="-0.8" relative="1" as="geometry" />
        </mxCell>
        <mxCell id="phy-network-layout-17-edge_dst_label" parent="phy-network-layout-17" style="labelBackgroundColor=#ffffff;" value="Gi0/0/1" vertex="1" vertex_type="Vertex.ETC">
          <mxGeometry x="0.8" relative="1" as="geometry" />
        </mxCell>
        <mxCell id="phy-network-layout-18" parent="1" style="edgeStyle=none;endArrow=none;curved=1;orthogonalLoop=1;jettySize=auto;html=1;" source="phy-network-layout-1" target="phy-network-layout-6" value="UPDATE" vertex_type="Vertex.ETC" edge="1">
          <mxGeometry relative="1" as="geometry" />
        </mxCell>
        <mxCell id="phy-network-layout-18-edge_src_label" parent="phy-network-layout-18" style="labelBackgroundColor=#ffffff;" value="Gi0/0/3" vertex="1" vertex_type="Vertex.ETC">
          <mxGeometry x="-0.8" relative="1" as="geometry" />
        </mxCell>
        <mxCell id="phy-network-layout-18-edge_dst_label" parent="phy-network-layout-18" style="labelBackgroundColor=#ffffff;" value="Gi0/0/1" vertex="1" vertex_type="Vertex.ETC">
          <mxGeometry x="0.8" relative="1" as="geometry" />
        </mxCell>
        <mxCell id="phy-network-layout-19" parent="1" style="edgeStyle=none;endArrow=none;curved=1;orthogonalLoop=1;jettySize=auto;html=1;" source="phy-network-layout-1" target="phy-network-layout-7" value="UPDATE" vertex_type="Vertex.ETC" edge="1">
          <mxGeometry relative="1" as="geometry" />
        </mxCell>
        <mxCell id="phy-network-layout-19-edge_src_label" parent="phy-network-layout-19" style="labelBackgroundColor=#ffffff;" value="Gi0/0/4" vertex="1" vertex_type="Vertex.ETC">
          <mxGeometry x="-0.8" relative="1" as="geometry" />
        </mxCell>
        <mxCell id="phy-network-layout-19-edge_dst_label" parent="phy-network-layout-19" style="labelBackgroundColor=#ffffff;" value="Gi0/0/1" vertex="1" vertex_type="Vertex.ETC">
          <mxGeometry x="0.8" relative="1" as="geometry" />
        </mxCell>
        <mxCell id="phy-network-layout-20" parent="1" style="edgeStyle=none;endArrow=none;curved=1;orthogonalLoop=1;jettySize=auto;html=1;" source="phy-network-layout-1" target="phy-network-layout-8" value="UPDATE" vertex_type="Vertex.ETC" edge="1">
          <mxGeometry relative="1" as="geometry" />
        </mxCell>
        <mxCell id="phy-network-layout-20-edge_src_label" parent="phy-network-layout-20" style="labelBackgroundColor=#ffffff;" value="Gi0/0/4" vertex="1" vertex_type="Vertex.ETC">
          <mxGeometry x="-0.8" relative="1" as="geometry" />
        </mxCell>
        <mxCell id="phy-network-layout-20-edge_dst_label" parent="phy-network-layout-20" style="labelBackgroundColor=#ffffff;" value="Gi0/0/1" vertex="1" vertex_type="Vertex.ETC">
          <mxGeometry x="0.8" relative="1" as="geometry" />
        </mxCell>
        <mxCell id="phy-network-layout-21" parent="1" style="edgeStyle=none;endArrow=none;curved=1;orthogonalLoop=1;jettySize=auto;html=1;" source="phy-network-layout-3" target="phy-network-layout-9" value="UPDATE" vertex_type="Vertex.ETC" edge="1">
          <mxGeometry relative="1" as="geometry" />
        </mxCell>
        <mxCell id="phy-network-layout-21-edge_src_label" parent="phy-network-layout-21" style="labelBackgroundColor=#ffffff;" value="Gi0/0/2" vertex="1" vertex_type="Vertex.ETC">
          <mxGeometry x="-0.8" relative="1" as="geometry" />
        </mxCell>
        <mxCell id="phy-network-layout-21-edge_dst_label" parent="phy-network-layout-21" style="labelBackgroundColor=#ffffff;" value="Gi0/0/1" vertex="1" vertex_type="Vertex.ETC">
          <mxGeometry x="0.8" relative="1" as="geometry" />
        </mxCell>
        <mxCell id="phy-network-layout-22" parent="1" style="edgeStyle=none;endArrow=none;curved=1;orthogonalLoop=1;jettySize=auto;html=1;" source="phy-network-layout-6" target="phy-network-layout-11" value="UPDATE" vertex_type="Vertex.ETC" edge="1">
          <mxGeometry relative="1" as="geometry" />
        </mxCell>
        <mxCell id="phy-network-layout-22-edge_src_label" parent="phy-network-layout-22" style="labelBackgroundColor=#ffffff;" value="Gi0/0/2" vertex="1" vertex_type="Vertex.ETC">
          <mxGeometry x="-0.8" relative="1" as="geometry" />
        </mxCell>
        <mxCell id="phy-network-layout-22-edge_dst_label" parent="phy-network-layout-22" style="labelBackgroundColor=#ffffff;" value="Gi0/0/1" vertex="1" vertex_type="Vertex.ETC">
          <mxGeometry x="0.8" relative="1" as="geometry" />
        </mxCell>
        <mxCell id="phy-network-layout-23" parent="1" style="edgeStyle=none;endArrow=none;curved=1;orthogonalLoop=1;jettySize=auto;html=1;" source="phy-network-layout-10" target="phy-network-layout-7" value="UPDATE" vertex_type="Vertex.ETC" edge="1">
          <mxGeometry relative="1" as="geometry" />
        </mxCell>
        <mxCell id="phy-network-layout-23-edge_src_label" parent="phy-network-layout-23" style="labelBackgroundColor=#ffffff;" value="Gi0/0/1" vertex="1" vertex_type="Vertex.ETC">
          <mxGeometry x="-0.8" relative="1" as="geometry" />
        </mxCell>
        <mxCell id="phy-network-layout-23-edge_dst_label" parent="phy-network-layout-23" style="labelBackgroundColor=#ffffff;" value="Gi0/0/2" vertex="1" vertex_type="Vertex.ETC">
          <mxGeometry x="0.8" relative="1" as="geometry" />
        </mxCell>
        <mxCell id="phy-network-layout-24" parent="1" style="edgeStyle=none;strokeWidth=3;startArrow=box;endArrow=box;curved=1;orthogonalLoop=1;jettySize=auto;html=1;" source="phy-network-layout-10" target="phy-network-layout-2" value="UPDATE" vertex_type="Vertex.ETC" edge="1">
          <mxGeometry relative="1" as="geometry" />
        </mxCell>
        <mxCell id="phy-network-layout-24-edge_src_label" parent="phy-network-layout-24" style="labelBackgroundColor=#ffffff;" value="Gi0/0/2" vertex="1" vertex_type="Vertex.ETC">
          <mxGeometry x="-0.8" relative="1" as="geometry" />
        </mxCell>
        <mxCell id="phy-network-layout-24-edge_dst_label" parent="phy-network-layout-24" style="labelBackgroundColor=#ffffff;" value="Gi0/0/2" vertex="1" vertex_type="Vertex.ETC">
          <mxGeometry x="0.8" relative="1" as="geometry" />
        </mxCell>
      </root>
    </mxGraphModel>
  </diagram>
</mxfile>